/* XPM */
static const char *icon_xpm[] = {
/* columns rows colors chars-per-pixel */
"32 32 158 2",
"w  c Black",
"X. c #685C68",
"L  c #E8E8E8",
"<. c #6D606D",
"^  c #696969",
"<  c #787878",
"f  c #878787",
":. c #676F71",
"z. c #74AC00",
"b  c #B4B4B4",
"i  c #C3C3C3",
"X  c #080808",
"A  c #D2D2D2",
"#. c #706470",
"   c none",
"O. c #626262",
";  c #717171",
"0  c #808080",
"y. c #004000",
"8. c #6A7375",
"T  c #9E9E9E",
"5. c #6F7779",
"4. c #010101",
"o. c #695D69",
"K  c #DADADA",
"D  c #E9E9E9",
"P  c #F8F8F8",
")  c #5B5B5B",
"f. c #003A00",
"R  c #6A6A6A",
"q  c #797979",
"{  c #687072",
"t  c #B5B5B5",
"Z  c #C4C4C4",
"o  c #090909",
"n  c #D3D3D3",
"m. c #716571",
"M  c #E2E2E2",
"l. c #003400",
"r. c #5A9C00",
"+. c #636363",
":  c #727272",
"$  c #818181",
"c. c #69A500",
".. c #61696B",
",. c #666D6F",
"j  c #BDBDBD",
"*. c #020202",
"k  c #CCCCCC",
"%. c #80A0A8",
"(  c #5C5C5C",
"6  c #6B6B6B",
"&  c #7A7A7A",
"}  c #646D6E",
"Z. c #002800",
"h  c #B6B6B6",
"p  c #C5C5C5",
"O  c #0A0A0A",
"z  c #D4D4D4",
"C. c #80B300",
"G  c #F2F2F2",
"'  c #646464",
"-  c #737373",
"3  c #828282",
" . c #626A6C",
"g  c #AFAFAF",
"$. c #030303",
"m  c #DCDCDC",
"2. c #706370",
"I  c #FAFAFA",
"_  c #5D5D5D",
"H. c #667854",
"0. c #004200",
"7  c #6C6C6C",
"1  c #7B7B7B",
"A. c #6DA700",
"+  c #0B0B0B",
"x  c #D5D5D5",
"w. c #736773",
"H  c #F3F3F3",
"]  c #656565",
">  c #747474",
"e  c #838383",
"d. c #66A300",
"|  c #636B6D",
"r  c #B0B0B0",
"u  c #BFBFBF",
"[  c #040404",
"@. c #6C606C",
"n. c #716471",
"U  c #FBFBFB",
"G. c #003300",
"~  c #5E5E5E",
"5  c #6D6D6D",
"s. c #5F9F00",
"9  c #7C7C7C",
"x. c #003000",
"k. c #6EA800",
"7. c #6B7375",
"C  c #B8B8B8",
"a  c #C7C7C7",
"@  c #0C0C0C",
"c  c #D6D6D6",
"N. c #7DB100",
"g. c #746874",
"N  c #E5E5E5",
"Q  c #666666",
"B. c #002A00",
"=  c #757575",
"-. c #697072",
"W  c #050505",
"9. c #63795B",
"/  c #5F5F5F",
"u. c #60A000",
"E  c #6E6E6E",
"%  c #7D7D7D",
"=. c #6C7475",
"6. c #6C7476",
"s  c #C8C8C8",
"J  c #0D0D0D",
"v  c #D7D7D7",
"e. c #756975",
"B  c #E6E6E6",
"D. c #5C7254",
"1. c #676767",
",  c #767676",
"h. c #004100",
"j. c #63A100",
"i. c #003E00",
"#  c #060606",
"S  c #DFDFDF",
"S. c #81B300",
"3. c #736673",
"q. c #647A5C",
"F. c #003B00",
"!  c #606060",
"t. c #5C9D00",
"4  c #6F6F6F",
"2  c #7E7E7E",
"M. c #6BA600",
"a. c #6D7577",
"y  c #BABABA",
"d  c #C9C9C9",
"v. c #7AAF00",
"V  c #E7E7E7",
"&. c #996699",
";. c #686868",
"*  c #777777",
">. c #666E70",
".  c #070707",
"l  c #D1D1D1",
"F  c #EFEFEF",
"b. c #002C00",
"`  c #616161",
"8  c #707070",
"V. c #6CA700",
"Y  c #9D9D9D",
"p. c #6E7678",
/* pixels */
"      . . X o O O + + + @ @ @ @ @ @ @ @ @ @ + + + O o o X       ",
"  # . $ % & * = - - ; ; ; ; ; ; ; ; ; ; : : - > , < 1 2 3 X .   ",
"  . 2 & , - ; 4 5 5 6 6 6 6 6 6 6 6 6 6 7 7 5 4 8 : = < 9 0 X   ",
"# 2 q = & w w w w w w w w w w w w w w w w w w w w w w e < 1 0 X ",
". & = & w r t y u i p a s s s d d d d d d d d s s s a w f < % o ",
". * : w g h j p k l z x c c c v v w v v v w v w c w x z w , & O ",
"X = 8 w b j s n m M N B V V V V V w V w V w V V w V B N w * & @ ",
"X - 4 w C Z A S D F G H H H H H H H w H w H H w H w H G w * & J ",
". - 4 & w d K L G P I U U U U U U U U U U U U U U U U w Y q 1 J ",
". - 4 7 % w w w w w w w w w w w w w w w w w w w w w w T * q 1 J ",
"# > 8 5 R R R 6 6 6 R 6 R R R R R R R R 6 6 7 5 E 8 : > * q 1 @ ",
"# = : 4 5 6 6 6 7 7 6 7 6 6 6 6 6 6 6 6 7 7 7 5 4 8 : > * q 1 O ",
"W - Q ! ~ ! ^ ^ / ( ( / ^ ^ / ) ) / ^ ^ / ( _ ` 7 5 ' ' ] R * X ",
"[ R { w w } ` ! | w w  ./ / ..w w  ./ / X.w w o.O.+.@.w w #.7 # ",
"$.^ w %.%.w ! ~ w %.%.w ~ _ w %.%.w _ ~ w &.&.w ! ` w &.&.w R [ ",
"*.R w %.%.w ` ! w %.%.w ~ ~ w %.%.w ~ ~ w &.&.w ` +.w &.&.w R $.",
"*.8 =.w w -.;.Q :.w w >.' ' ,.w w ,.' ' @.w w <.1.^ 2.w w 3.8 *.",
"4.9 4 R ^ 6 > - ;.' ' 1.; ; 1.' ' 1.; ; 1.' ' ^ > = 6 R R 8 % 4.",
"4.% 8 6 R 5 * , R Q Q ^ > > ^ Q Q ^ > < < q q q & * 5 R 7 8 2 4.",
"w : 5.w w 6.5 5 7.w w 8.6 6 8.w w 8.6 & 9.0.0.q.9 E w.w w e.- 4.",
"w E w %.%.w R R w %.%.w ^ ^ w %.%.w ^ 1 0.r.t.y.9 R w &.&.w E w ",
"w E w %.%.w 6 R w %.%.w R ^ w %.%.w ^ 9 0.t.u.i.% 6 w &.&.w E w ",
"w ; p.w w a.4 E 6.w w =.5 5 =.w w =.5 9 0.s.d.f.% 4 w.w w g.; w ",
"w 1 8 6 6 E q q E R R 5 < < 5 R R 5 < 9 h.j.k.l.% q E 6 6 8 1 w ",
"w & 4 6 R E q < 5 R R 5 < < 5 R R 5 < 9 h.d.z.x.9 q E R 6 4 & w ",
"w 7 7.w w 8.6 6 8.w w 8.6 6 8.w w 8.6 & y.c.v.b.& 6 n.w w m.7 w ",
"w 1.w %.%.w Q Q w %.%.w Q Q w %.%.w Q < y.M.N.B.< Q w &.&.w 1.w ",
"w ' w %.%.w ' ' w %.%.w ' ' w %.%.w ' , y.V.C.Z., ' w &.&.w ' w ",
"w ] >.w w >.] ] >.w w >.] ] >.w w >.] - y.A.S.Z.- ] @.w w @.] w ",
"  w O./ / O.7 7 O./ / O.7 7 O./ / O.7 8 D.F.G.H.8 7 O./ / O.w   ",
"  w w 7 7 7 7 7 7 7 7 7 7 7 7 7 7 7 7 7 7 7 7 7 7 7 7 7 7 w w   ",
"      w w w w w w w w w w w w w w w w w w w w w w w w w w       "
};
